PathFileType	4	(X/Y/Z)	C:/Users/beibeiliu/ov580/test_trc/User2\sequence.10_training_dense_left.trc
DataRate	CameraRate	NumFrames	NumMarkers	Units	OrigDataRate	OrigDataStartFrame	OrigNumFrames
120	120	12	19	mm	120	122	484
Frame#	Time	ThumbCMC			ThumbMCP			ThumbIP			ThumbTip			IndexMCP			IndexPIP			IndexTip			MiddleMCP			MiddlePIP			MiddleTip			RingMCP			RingPIP			RingTip			PinkyMCP			PinkyPIP			PinkyTip			BackHand1			BackHand2			BackHand3	
		X0	Y0	Z0	X1	Y1	Z1	X2	Y2	Z2	X3	Y3	Z3	X4	Y4	Z4	X5	Y5	Z5	X6	Y6	Z6	X7	Y7	Z7	X8	Y8	Z8	X9	Y9	Z9	X10	Y10	Z10	X11	Y11	Z11	X12	Y12	Z12	X13	Y13	Z13	X14	Y14	Z14	X15	Y15	Z15	X16	Y16	Z16	X17	Y17	Z17	X18	Y18	Z18	
121	1.00833	-155.521	-41.7647	137.291	-149.685	-63.6112	110.256	-154.922	-76.4432	75.6561	-172.663	-81.8976	50.586	-165.767	-0.662858	65.4911	-159.813	4.92831	41.556	-156.763	13.1739	11.6959	-192.467	-18.8335	50.4176	-187.848	-47.4483	33.8937	-191.471	-79.5892	58.6538	-216.234	-28.0403	56.8712	-212.669	-57.9786	43.6403	-204.275	-80.8636	70.9733	-233.453	-33.2265	70.5707	-225.404	-63.2755	55.4627	-215.16	-80.3705	80.7948	-217.486	-7.32726	115.994	-220.315	-9.26781	153.44	-182.393	-3.89498	135.836	
122	1.01667	-158.833	-39.4332	140.045	-147.611	-59.0188	108.654	-149.24	-74.589	72.9588	-165.803	-79.4405	51.2181	-162.757	3.26441	65.5488	-157.033	8.17246	43.7764	-151.118	15.5641	18.1371	-190.179	-16	51.451	-184.623	-47.4632	33.619	-180.868	-78.3319	59.8926	-212.633	-28.8786	53.5235	-207.092	-58.8838	42.3649	-199.457	-79.9152	68.8399	-230.648	-35.17	64.3837	-220.326	-62.1686	53.3741	-206.49	-78.3662	78.3773	-219.562	-7.36691	113.643	-220.446	-7.37838	151.695	-180.967	-3.88394	135.853	
123	1.025	-154.58	-30.8372	136.405	-143.612	-50.9042	106.154	-146.253	-66.6327	75.1402	-156.912	-78.875	54.0817	-169.043	4.76005	66.0136	-168.231	11.8083	36.7889	-163.731	17.0802	8.76155	-193.578	-18.4041	50.7244	-187.896	-50.9613	33.8983	-175.479	-78.0581	59.094	-212.586	-32.2512	57.0184	-204.071	-63.7021	44.2799	-189.891	-82.2148	72.9508	-230.669	-42.0807	70.3197	-214.854	-69.1024	56.0361	-202.382	-86.2466	78.2116	-224.442	-12.435	117.7	-222.071	-10.1713	148.301	-191.018	-1.29203	135.609	
124	1.03333	-161.126	-19.5563	135.668	-145.324	-38.1414	109.812	-138.094	-56.2333	77.0333	-148.278	-72.2075	59.1411	-187.206	1.19236	62.1035	-187.433	4.23622	35.2018	-186.784	8.04618	6.27121	-199.983	-25.1174	51.4696	-185.448	-58.1169	35.7332	-166.528	-79.4558	61.2973	-216.94	-45.774	58.0712	-198.456	-69.9063	46.063	-176.79	-82.689	77.1419	-231.017	-59.6588	73.2163	-206.38	-81.6027	61.4961	-187.663	-89.7063	86.4149	-228.795	-20.2684	113.888	-232.078	-17.7388	150.748	-200.421	-2.09423	133.34	
125	1.04167	-170.513	-7.03108	134.853	-145.094	-21.7029	112.917	-132.982	-40.7193	84.0368	-137.31	-60.9437	64.6076	-199.257	-3.55229	60.5882	-198.866	-2.30673	32.9303	-201.788	-4.04013	3.6734	-202.569	-36.7497	48.5937	-178.406	-61.2225	37.9703	-153.164	-75.1769	65.8961	-211.452	-60.1962	59.1161	-180.571	-76.236	52.4042	-162.043	-81.807	82.5615	-218.777	-74.7314	76.9827	-187.916	-88.02	67.6955	-170.584	-87.5892	94.5916	-235.184	-36.9942	114.137	-238.063	-29.0964	146.392	-214.066	-4.69039	129.19	
126	1.05	-183.654	0.103884	132.456	-155.708	-7.5228	113.95	-132.623	-23.206	84.3755	-128.772	-46.0473	70.1491	-210.319	-13.3462	52.9344	-208.615	-14.1587	28.9522	-210.392	-20.6475	-0.98538	-202.807	-47.3543	53.7353	-170.072	-56.428	37.6317	-138.806	-59.9433	62.824	-194.771	-71.9252	59.4999	-165.184	-75.5962	58.1069	-145.281	-67.7955	85.2209	-199.271	-87.5721	80.7403	-166.877	-85.1288	74.2886	-153.599	-73.4624	103.631	-232.808	-52.8328	111.666	-237.265	-45.2684	149.58	-228.077	-17.0488	123.456	
127	1.05833	-201.151	1.58777	130.107	-166.279	7.36196	112.583	-141.322	-5.81565	90.4241	-125.96	-28.6795	73.2537	-214.741	-27.66	52.3081	-212.155	-26.0217	28.1639	-211.096	-32.3362	-2.07479	-192.106	-51.419	50.524	-156.974	-51.7752	42.1203	-128.422	-41.4803	68.0707	-178.892	-71.5357	63.9883	-148.927	-66.9413	63.3096	-134.266	-44.2261	91.3904	-175.428	-88.2668	85.8562	-143.563	-76.2114	84.2341	-142.682	-52.925	109.45	-224.138	-65.4161	116.873	-234.527	-61.0414	144.509	-233.643	-33.0713	120.651	
128	1.06667	-215.043	-3.55332	128.742	-182.936	12.0665	111.858	-152.292	7.40946	91.0429	-131.597	-8.20723	81.1917	-214.35	-37.0766	54.4183	-210.536	-36.1537	25.6473	-207.708	-35.4701	1.53229	-182.367	-54.7639	52.9897	-150.502	-41.283	43.3069	-127.611	-23.6567	69.9426	-164.258	-67.3919	66.6729	-139.652	-52.76	65.8536	-132.708	-25.9237	94.2763	-161.411	-78.7144	90.4072	-132.336	-57.2026	89.3092	-142.831	-33.4024	112.881	-211.418	-75.2571	115.366	-227.039	-73.2331	147.472	-236.48	-43.9454	121.813	
129	1.075	-226.251	-10.2181	127.101	-198.653	11.6129	111.314	-166.32	15.5692	90.1153	-145.483	6.18769	85.3081	-215.327	-40.6984	55.0798	-209.401	-40.5314	23.6149	-205.018	-40.8498	1.20704	-177.376	-54.6759	57.5432	-149.402	-30.3833	47.0692	-134.443	-5.57217	72.4742	-156.768	-58.9938	70.8555	-135.416	-36.703	70.1417	-137.878	-10.8918	96.2607	-148.976	-69.7473	93.3351	-131.897	-39.1747	90.8377	-146.612	-18.2239	114.137	-202.635	-79.1012	117.022	-219.846	-79.1801	146.415	-233.906	-54.0257	118.518	
130	1.08333	-234.518	-18.7559	124.358	-213.599	9.95818	106.98	-183.316	21.8175	90.786	-157.994	18.6321	82.3282	-216.192	-45.2867	54.6573	-208.417	-45.7881	25.4809	-200.766	-45.5519	-1.82118	-178.264	-48.473	55.8996	-154.245	-21.987	48.0558	-149.588	5.94909	74.6476	-156.783	-52.9467	74.4108	-142.872	-19.0311	71.3895	-151.901	2.83075	99.416	-146.674	-55.3467	92.9892	-137.016	-25.1201	92.2325	-154.303	-9.00431	115.652	-193.76	-81.0174	114.552	-210.745	-82.3479	146.828	-232.793	-63.5751	120.692	
131	1.09167	-241.119	-26.1537	126.403	-225.976	5.28148	108.657	-201.242	23.9414	91.7284	-173.212	24.5514	83.335	-216.333	-48.7587	51.4623	-211.534	-46.9157	27.7241	-200.835	-46.5959	1.24503	-179.16	-44.716	54.4279	-161.904	-12.7023	49.9045	-164.792	12.1973	82.7001	-158.611	-42.9364	73.2403	-147.295	-11.1759	73.2965	-160.172	7.3544	100.047	-150.811	-46.9951	92.8332	-142.609	-14.7192	94.2809	-164.142	-0.992717	118.6	-190.641	-79.3591	117.786	-209.866	-85.3487	145.033	-230.852	-69.4329	120.897	
132	1.1	-247.478	-30.7942	124.104	-237.395	4.57341	106.384	-213.224	22.9939	87.8881	-188.799	28.3676	80.9164	-219.277	-50.977	52.1813	-213.534	-49.4157	25.2386	-208.631	-47.2526	-0.18828	-184.174	-40.2534	53.2636	-170.049	-6.98107	52.0235	-180.102	14.6153	86.524	-167.255	-36.3135	68.4137	-158.111	-4.47188	72.3978	-175.315	11.8224	97.3789	-155.335	-40.9906	90.7195	-153.109	-6.91236	92.0589	-173.964	0.646214	116.333	-192.687	-75.1325	113.44	-210.02	-85.6878	147.426	-232.541	-71.9902	114.359	
